<?xml version="1.0" standalone="no"?>
<!DOCTYPE svg PUBLIC "-//W3C//DTD SVG 1.1//EN" "http://www.w3.org/Graphics/SVG/1.1/DTD/svg11.dtd" >
<svg xmlns="http://www.w3.org/2000/svg">
<metadata></metadata>
<defs>
<font id="ultinenorm_regular" horiz-adv-x="1271" >
<font-face units-per-em="2048" ascent="1536" descent="-512" />
<missing-glyph horiz-adv-x="507" />
<glyph unicode="&#xfb01;" horiz-adv-x="1216" d="M408 1055v-68h651v-987h-164v852h-487v-852h-162v852h-199v135h199v72q0 196 123 300.5t350 104.5q154 0 323 -59l-38 -129q-144 53 -283 53q-154 0 -233.5 -72t-79.5 -202z" />
<glyph unicode="&#xfb02;" horiz-adv-x="1222" d="M901 1503l164 35v-1538h-164v852h-493v-852h-162v852h-199v135h199v72q0 196 123 300.5t350 104.5q97 0 182 -18v57zM408 1055v-68h493v320q-87 22 -180 22q-154 0 -233.5 -72t-79.5 -202z" />
<glyph unicode="&#xfb03;" horiz-adv-x="1869" d="M1061 1055v-68h651v-987h-164v852h-487v-852h-162v852h-491v-852h-162v852h-199v135h199v25q0 173 102.5 269.5t280.5 96.5q177 0 342 -73q119 159 401 159q155 0 324 -59l-39 -129q-144 53 -285 53q-153 0 -232 -72t-79 -202zM408 1008v-21h491v72q0 71 14 123 q-70 32 -129 46.5t-137 14.5q-115 0 -177 -62t-62 -173z" />
<glyph unicode="&#xfb04;" horiz-adv-x="1875" d="M1554 1503l164 35v-1538h-164v852h-493v-852h-162v852h-491v-852h-162v852h-199v135h199v25q0 173 102.5 269.5t280.5 96.5q177 0 342 -73q119 159 401 159q96 0 182 -18v57zM1061 1055v-68h493v320q-87 22 -182 22q-153 0 -232 -72t-79 -202zM408 1008v-21h491v72 q0 71 14 123q-70 32 -129 46.5t-137 14.5q-115 0 -177 -62t-62 -173z" />
<glyph horiz-adv-x="0" />
<glyph horiz-adv-x="682" />
<glyph horiz-adv-x="0" />
<glyph horiz-adv-x="0" />
<glyph unicode="&#xd;" horiz-adv-x="507" />
<glyph unicode=" "  horiz-adv-x="507" />
<glyph unicode="&#x09;" horiz-adv-x="507" />
<glyph unicode="&#xa0;" horiz-adv-x="507" />
<glyph unicode="!" horiz-adv-x="538" d="M186 326v1108h166v-1108h-166zM373 80q0 46 -28.5 75t-74.5 29t-74 -29t-28 -75q0 -43 28.5 -71.5t73.5 -28.5q48 0 75.5 28t27.5 72z" />
<glyph unicode="&#x22;" horiz-adv-x="753" d="M287 1016h-148v418h148v-418zM614 1016h-147v418h147v-418z" />
<glyph unicode="#" horiz-adv-x="1310" d="M381 0h-137l49 365h-213v120h229l62 461h-203v121h219l51 367h135l-49 -367h348l52 367h137l-51 -367h219v-121h-236l-61 -461h211v-120h-228l-49 -365h-139l49 365h-346zM508 946l-62 -461h347l63 461h-348z" />
<glyph unicode="$" horiz-adv-x="1161" d="M625 -205h-111v185q-118 3 -238 25t-188 54l35 140q194 -74 424 -74q181 0 266.5 63t85.5 174q0 61 -27 111t-72 84.5t-103.5 65t-123.5 57t-130 54.5t-123.5 63.5t-103.5 79t-72 106t-27 139.5q0 83 31.5 147t89.5 103.5t131.5 61.5t165.5 28v176h110v-174 q118 -3 203.5 -19t189.5 -46l-37 -139q-102 32 -181.5 46.5t-184.5 14.5q-41 0 -74 -2t-76 -8t-75 -19.5t-61 -34t-44.5 -53.5t-15.5 -76q0 -57 27 -103t72 -79t103.5 -62t123.5 -55.5t130 -55t123.5 -66t103.5 -82.5t72 -110.5t27 -145.5q0 -164 -110.5 -267.5 t-335.5 -117.5v-189z" />
<glyph unicode="%" horiz-adv-x="1720" d="M428 -45l-94 61l969 1479l96 -57zM416 1464q151 0 251.5 -98t100.5 -258q0 -155 -96 -252.5t-254 -97.5q-160 0 -254 97.5t-94 252.5q0 159 97 257.5t249 98.5zM647 1112q0 111 -63 184.5t-164 73.5q-103 0 -167.5 -74t-64.5 -184q0 -114 63.5 -186t168.5 -72 q102 0 164.5 72t62.5 186zM1298 686q151 0 252 -98t101 -258q0 -155 -95.5 -252.5t-252.5 -97.5q-160 0 -254.5 97.5t-94.5 252.5q0 159 97 257.5t247 98.5zM1532 334q0 110 -64 184t-165 74q-103 0 -167.5 -74t-64.5 -184q0 -114 63.5 -186t168.5 -72q102 0 165.5 72.5 t63.5 185.5z" />
<glyph unicode="&#x26;" horiz-adv-x="1583" d="M1526 829v-135h-264v-641q-96 -36 -244 -54.5t-275 -18.5q-298 0 -462 114t-164 303q0 131 84.5 228t251.5 137q-150 39 -228 127t-78 207q0 75 32.5 139t100.5 116.5t185.5 82.5t273.5 30q257 0 473 -61l-24 -141q-227 59 -434 59q-209 0 -315.5 -64.5t-106.5 -171.5 q0 -86 68 -145.5t169 -85t224 -25.5h733zM758 121q166 0 342 39v534h-312q-224 0 -354.5 -76.5t-130.5 -216.5q0 -134 121 -207t334 -73z" />
<glyph unicode="'" horiz-adv-x="425" d="M287 1016h-148v418h148v-418z" />
<glyph unicode="(" horiz-adv-x="602" d="M457 1524l88 -76q-129 -148 -203 -382.5t-74 -506.5q0 -269 75.5 -502.5t201.5 -386.5l-88 -76q-159 154 -257 405.5t-98 559.5q0 306 98 557.5t257 407.5z" />
<glyph unicode=")" horiz-adv-x="602" d="M57 1448l88 76q159 -156 257 -407.5t98 -557.5q0 -308 -98 -559.5t-257 -405.5l-88 76q126 153 201.5 386.5t75.5 502.5q0 272 -74 506.5t-203 382.5z" />
<glyph unicode="*" horiz-adv-x="843" d="M100 1141l31 90l244 -78v256h96v-256l242 80l30 -92l-239 -82l147 -205l-78 -55l-151 205l-150 -207l-77 57l149 207zM424 1087h-2v-2z" />
<glyph unicode="+" horiz-adv-x="1173" d="M512 1135h147v-424h431v-138h-431v-446h-147v446h-430v138h430v424z" />
<glyph unicode="," horiz-adv-x="481" d="M188 -254h-139l121 444h197z" />
<glyph unicode="-" horiz-adv-x="882" d="M741 614v-145h-598v145h598z" />
<glyph unicode="." horiz-adv-x="446" d="M326 80q0 -44 -27.5 -72t-75.5 -28q-45 0 -73.5 28.5t-28.5 71.5q0 46 28 75t74 29q47 0 75 -29t28 -75z" />
<glyph unicode="/" horiz-adv-x="937" d="M221 -94l-151 61l645 1563l153 -62z" />
<glyph unicode="0" horiz-adv-x="1304" d="M649 1464q233 0 385 -204.5t152 -534.5q0 -216 -66 -386t-189 -267t-282 -97t-281 97.5t-186.5 267.5t-64.5 385q0 328 149.5 533.5t382.5 205.5zM1006 727q0 269 -98.5 431.5t-256.5 162.5t-255 -163.5t-97 -430.5q0 -270 96.5 -439t257.5 -169q105 0 185.5 77.5 t124 215.5t43.5 315z" />
<glyph unicode="1" horiz-adv-x="716" d="M117 1090l-76 118l330 226h137v-1434h-174v1235z" />
<glyph unicode="2" horiz-adv-x="1103" d="M999 145v-145h-925v109l428 442q280 291 280 504q0 130 -74.5 194t-236.5 64q-71 0 -166.5 -16.5t-175.5 -49.5l-33 139q77 38 193 58t221 20q235 0 348 -105t113 -288q0 -275 -359 -618l-313 -308h700z" />
<glyph unicode="3" horiz-adv-x="1134" d="M365 694v135h79q97 0 174.5 24t129 82.5t51.5 145.5q0 108 -78 174t-227 66q-162 0 -342 -76l-33 141q81 36 188 57t211 21q122 0 214.5 -30t146.5 -82t80 -116.5t26 -139.5q0 -120 -65 -207.5t-191 -126.5q141 -40 212 -137t71 -228q0 -190 -137.5 -305t-387.5 -115 q-100 0 -215.5 19.5t-191.5 56.5l33 142q184 -76 356 -76q166 0 260 74.5t94 212.5t-101.5 213t-275.5 75h-81z" />
<glyph unicode="4" horiz-adv-x="1155" d="M887 0h-174v309h-674v107l711 1018h137v-981h184v-144h-184v-309zM217 453h496v718z" />
<glyph unicode="5" horiz-adv-x="1138" d="M162 694l78 740h727v-146h-580l-49 -430q120 19 225 19q100 0 183.5 -26t149.5 -78.5t103 -140.5t37 -204q0 -218 -132 -333t-384 -115q-105 0 -229.5 18t-208.5 51l33 139q171 -65 362 -65q86 0 152 15.5t116 50t76.5 94t26.5 141.5q0 313 -367 313q-160 0 -319 -43z " />
<glyph unicode="6" horiz-adv-x="1202" d="M655 922q219 0 347 -129t128 -344q0 -211 -139 -340t-375 -129t-376 129t-140 340q0 156 72 272l469 743h182l-391 -600q107 58 223 58zM965 449q0 155 -93 245t-256 90q-164 0 -256 -89.5t-92 -245.5q0 -152 92.5 -242t255.5 -90q162 0 255.5 90t93.5 242z" />
<glyph unicode="7" horiz-adv-x="995" d="M961 1434v-109l-631 -1325h-185l611 1288h-701v146h906z" />
<glyph unicode="8" horiz-adv-x="1267" d="M633 1464q186 0 314 -101.5t128 -260.5q0 -104 -61.5 -187t-169.5 -124q145 -44 231 -145t86 -238q0 -189 -147 -308.5t-383 -119.5t-380.5 120.5t-144.5 307.5q0 136 85.5 237t232.5 146q-106 41 -165.5 123t-59.5 186q0 159 123.5 261.5t310.5 102.5zM981 410 q0 136 -95 221.5t-251 85.5q-158 0 -253 -85.5t-95 -221.5q0 -132 94 -213.5t254 -81.5q157 0 251.5 81.5t94.5 213.5zM901 1098q0 101 -72 166t-192 65t-193 -65.5t-73 -167.5t71.5 -170t194.5 -68q121 0 192.5 68.5t71.5 171.5z" />
<glyph unicode="9" horiz-adv-x="1202" d="M547 522q-220 0 -348.5 129t-128.5 344q0 211 140 340t376 129t376 -129t140 -340q0 -156 -72 -272l-469 -743h-182l387 598q-106 -56 -219 -56zM238 995q0 -156 93 -246t255 -90t255 90t93 246q0 152 -93 242t-255 90t-255 -90t-93 -242z" />
<glyph unicode=":" horiz-adv-x="487" d="M344 80q0 -44 -27 -72t-75 -28q-45 0 -74 28.5t-29 71.5q0 46 28.5 75t74.5 29q47 0 74.5 -29t27.5 -75zM344 840q0 -44 -27 -72.5t-75 -28.5q-45 0 -74 29t-29 72q0 46 28.5 75t74.5 29q47 0 74.5 -29t27.5 -75z" />
<glyph unicode=";" horiz-adv-x="563" d="M229 -254h-139l121 444h197zM399 840q0 -44 -27 -72.5t-75 -28.5q-45 0 -73.5 29t-28.5 72q0 46 28 75t74 29q47 0 74.5 -29t27.5 -75z" />
<glyph unicode="&#x3c;" horiz-adv-x="1048" d="M82 643l823 379v-154l-620 -280l620 -279v-155l-823 381v108z" />
<glyph unicode="=" horiz-adv-x="1019" d="M870 883v-138h-720v138h720zM870 524v-137h-720v137h720z" />
<glyph unicode="&#x3e;" horiz-adv-x="1048" d="M967 535l-824 -381v155l621 279l-621 280v154l824 -379v-108z" />
<glyph unicode="?" horiz-adv-x="1009" d="M532 289h-163v170q0 69 20.5 128.5t53.5 101.5t72.5 79.5t79 72t72.5 70t53.5 81.5t20.5 98q0 106 -75 168.5t-220 62.5q-190 0 -354 -82l-29 141q173 84 396 84q125 0 218.5 -30t147.5 -82.5t79.5 -116t25.5 -139.5q0 -67 -22 -125t-57 -100.5t-77.5 -81.5t-85 -75.5 t-77.5 -74.5t-57 -87.5t-22 -105.5v-157zM553 80q0 46 -27.5 75t-72.5 29q-47 0 -75 -29t-28 -75q0 -44 28 -72t75 -28q48 0 74 28t26 72z" />
<glyph unicode="@" horiz-adv-x="1673" d="M1272 236l82 -91q-210 -165 -498 -165q-223 0 -393 95.5t-261 265t-91 386.5q0 161 55.5 298.5t153.5 234t236 150.5t298 54q209 0 376.5 -91.5t264 -259.5t96.5 -382h-139q0 279 -166 452t-428 173q-268 0 -438 -174.5t-170 -448.5q0 -290 166 -467.5t442 -177.5 q242 0 414 148zM836 1026q144 0 217 -106l12 90h115l-39 -297q-11 -91 27.5 -155t119.5 -64q69 0 116.5 67t47.5 170h139q0 -153 -83.5 -249.5t-223.5 -96.5q-78 0 -138 36t-93 99q-79 -145 -273 -145q-146 0 -226 91.5t-65 231.5q13 147 110.5 237.5t236.5 90.5zM1024 700 q9 104 -40.5 166t-141.5 62q-95 0 -160 -62.5t-74 -165.5q-11 -102 40.5 -164.5t150.5 -62.5q93 0 154.5 62.5t70.5 164.5z" />
<glyph unicode="A" horiz-adv-x="1429" d="M1231 0l-129 305h-780l-132 -305h-178l619 1434h176l604 -1434h-180zM719 1217l-334 -766h655z" />
<glyph unicode="B" horiz-adv-x="1406" d="M209 0v1434h518q234 0 368 -99t134 -268q0 -236 -228 -313q302 -72 302 -361q0 -196 -147 -294.5t-408 -98.5h-539zM772 676h-389v-533h365q186 0 279 60t93 198q0 275 -348 275zM727 1290h-344v-473h344q320 0 320 242q0 109 -84.5 170t-235.5 61z" />
<glyph unicode="C" horiz-adv-x="1431" d="M907 1321q-283 0 -450.5 -164.5t-167.5 -443.5q0 -270 168 -431t452 -161q108 0 220 24t194 66l55 -131q-208 -103 -475 -103q-183 0 -333.5 55t-251.5 152.5t-156.5 233t-55.5 295.5q0 165 55.5 304t157 238t250.5 154t330 55q270 0 461 -102l-57 -133 q-78 43 -184.5 67.5t-211.5 24.5z" />
<glyph unicode="D" horiz-adv-x="1556" d="M578 0h-369v1434h369q265 0 459 -81t302.5 -243.5t108.5 -392.5q0 -177 -61.5 -313.5t-175.5 -225t-274 -133.5t-359 -45zM578 1290h-195v-1147h195q322 0 502 144.5t180 429.5q0 278 -181.5 425.5t-500.5 147.5z" />
<glyph unicode="E" d="M1184 145v-145h-975v1434h950v-146h-776v-473h635v-145h-635v-525h801z" />
<glyph unicode="F" horiz-adv-x="1204" d="M1159 1434v-146h-776v-489h592v-146h-592v-653h-174v1434h950z" />
<glyph unicode="G" horiz-adv-x="1607" d="M1485 121q-241 -144 -555 -144q-192 0 -348 56t-259 155.5t-158.5 237t-55.5 301.5q0 335 221.5 536t597.5 201q298 0 504 -114l-60 -136q-171 107 -442 107q-291 0 -466 -161t-175 -431q0 -274 178.5 -441t472.5 -167q217 0 373 84v370h-338v144h510v-598z" />
<glyph unicode="H" horiz-adv-x="1581" d="M383 0h-174v1434h174v-666h817v666h172v-1434h-172v623h-817v-623z" />
<glyph unicode="I" horiz-adv-x="589" d="M383 0h-174v1434h174v-1434z" />
<glyph unicode="J" horiz-adv-x="1044" d="M850 469q0 -249 -112.5 -370.5t-360.5 -121.5q-194 0 -334 70l53 135q128 -61 279 -61q303 0 303 356v957h172v-965z" />
<glyph unicode="K" horiz-adv-x="1419" d="M383 0h-174v1434h174v-666h201l583 666h209l-620 -723l671 -711h-219l-600 623h-225v-623z" />
<glyph unicode="L" horiz-adv-x="1124" d="M1087 145v-145h-878v1434h174v-1289h704z" />
<glyph unicode="M" horiz-adv-x="1937" d="M379 0h-170v1434h194l564 -854l567 854h195v-1434h-173v1202l-524 -809h-127l-526 809v-1202z" />
<glyph unicode="N" horiz-adv-x="1673" d="M383 0h-174v1434h186l897 -1188v1188h172v-1434h-186l-895 1186v-1186z" />
<glyph unicode="O" horiz-adv-x="1763" d="M106 725q0 217 95.5 384.5t272.5 261t409 93.5q173 0 318 -54.5t245 -151.5t155.5 -234t55.5 -299q0 -215 -95 -384t-271.5 -265t-407.5 -96q-174 0 -320 56t-246 154.5t-155.5 236t-55.5 298.5zM1483 725q0 266 -163.5 429t-436.5 163q-275 0 -438.5 -163t-163.5 -429 q0 -265 164 -431.5t438 -166.5q272 0 436 166.5t164 431.5z" />
<glyph unicode="P" horiz-adv-x="1288" d="M383 0h-174v1434h475q257 0 396 -120.5t139 -332.5q0 -209 -138.5 -324.5t-396.5 -115.5h-301v-541zM684 1290h-301v-606h301q171 0 261.5 75.5t90.5 221.5q0 149 -92 229t-260 80z" />
<glyph unicode="Q" horiz-adv-x="1763" d="M106 725q0 217 95.5 384.5t272.5 261t409 93.5q173 0 318 -54.5t245 -151.5t155.5 -234t55.5 -299q0 -265 -145 -458t-394 -259l445 -262l-111 -111l-567 345h-2q-174 0 -320 56t-246 154.5t-155.5 236t-55.5 298.5zM1483 725q0 266 -163.5 429t-436.5 163 q-275 0 -438.5 -163t-163.5 -429q0 -265 164 -431.5t438 -166.5q272 0 436 166.5t164 431.5z" />
<glyph unicode="R" horiz-adv-x="1374" d="M383 0h-174v1434h524q224 0 363 -122.5t139 -303.5q0 -163 -105.5 -271.5t-289.5 -134.5l473 -602h-201l-463 594h-266v-594zM733 1290h-350v-553h350q145 0 228 73t83 194t-85 203.5t-226 82.5z" />
<glyph unicode="S" horiz-adv-x="1175" d="M295 1128q0 -57 27 -103t72 -79t103.5 -62t123.5 -55.5t130 -55t123.5 -66t103.5 -82.5t72 -110.5t27 -145.5q0 -177 -129.5 -283t-394.5 -106q-121 0 -252.5 22.5t-206.5 56.5l35 140q194 -74 424 -74q181 0 266.5 63t85.5 174q0 61 -27 111t-72 84.5t-103.5 65 t-123.5 57t-130 54.5t-123.5 63.5t-103.5 79t-72 106t-27 139.5q0 92 38.5 160t108 107t156 57t192.5 18q132 0 223.5 -16t202.5 -49l-36 -139q-102 32 -182 46.5t-185 14.5q-41 0 -74 -2t-76 -8t-75 -19.5t-61 -34t-44.5 -53.5t-15.5 -76z" />
<glyph unicode="T" horiz-adv-x="1202" d="M688 0h-172v1288h-481v146h1132v-146h-479v-1288z" />
<glyph unicode="U" horiz-adv-x="1527" d="M190 543v891h172v-879q0 -198 108 -315t294 -117q185 0 293 116.5t108 315.5v879h172v-891q0 -256 -154 -411t-419 -155t-419.5 155t-154.5 411z" />
<glyph unicode="V" horiz-adv-x="1329" d="M586 0l-559 1434h184l453 -1213l456 1213h183l-560 -1434h-157z" />
<glyph unicode="W" horiz-adv-x="2105" d="M487 0l-448 1434h178l369 -1215l381 1215h178l375 -1215l364 1215h180l-444 -1434h-178l-387 1182l-391 -1182h-177z" />
<glyph unicode="X" horiz-adv-x="1349" d="M53 1434h191l430 -600l434 600h190l-501 -701l532 -733h-192l-461 637l-463 -637h-190l530 735z" />
<glyph unicode="Y" horiz-adv-x="1292" d="M733 0h-174v555l-534 879h190l430 -727l432 727h191l-535 -879v-555z" />
<glyph unicode="Z" horiz-adv-x="1249" d="M1182 145v-145h-1116v109l845 1179h-809v146h1045v-111l-844 -1178h879z" />
<glyph unicode="[" horiz-adv-x="626" d="M188 -344v1843h375v-137h-227v-1569h227v-137h-375z" />
<glyph unicode="\" horiz-adv-x="937" d="M868 -33l-151 -61l-647 1562l153 62z" />
<glyph unicode="]" horiz-adv-x="626" d="M438 1499v-1843h-375v137h228v1569h-228v137h375z" />
<glyph unicode="^" horiz-adv-x="1007" d="M569 1434l344 -650h-168l-241 488l-242 -488h-168l344 650h131z" />
<glyph unicode="_" horiz-adv-x="1114" d="M1081 -94v-144h-1048v144h1048z" />
<glyph unicode="`" horiz-adv-x="1705" d="M506 1157h-148l-284 277h211z" />
<glyph unicode="a" horiz-adv-x="1339" d="M614 1016q135 0 239 -57t165 -160v188h162v-987h-162v193q-62 -101 -166.5 -157t-243.5 -56q-229 0 -371.5 143.5t-142.5 372.5q0 155 70 274.5t187.5 182.5t262.5 63zM262 496q0 -167 104 -272t275 -105q168 0 269.5 99.5t107.5 262.5v33q-6 162 -108 263.5t-267 101.5 q-170 0 -275.5 -107t-105.5 -276z" />
<glyph unicode="b" horiz-adv-x="1320" d="M717 1014q226 0 368 -143t142 -375t-142.5 -375.5t-367.5 -143.5q-139 0 -240 58t-158 162l-6 -197h-155v1501l164 35v-737q57 102 157 158.5t238 56.5zM1059 496q0 170 -100 275.5t-271 105.5t-268.5 -105t-97.5 -276v-17q5 -163 102 -263.5t264 -100.5q170 0 270.5 106 t100.5 275z" />
<glyph unicode="c" horiz-adv-x="1089" d="M961 813q-55 32 -134 50t-155 18q-187 0 -298.5 -106.5t-111.5 -278.5t110 -275.5t298 -103.5q155 0 309 65l55 -125q-181 -77 -366 -77q-267 0 -420.5 143t-153.5 373q0 235 159 377.5t423 142.5q194 0 342 -74z" />
<glyph unicode="d" horiz-adv-x="1339" d="M1018 1501l162 37v-1538h-154l-6 199q-60 -104 -164.5 -161.5t-247.5 -57.5q-229 0 -371.5 143.5t-142.5 372.5q0 155 70 274.5t187.5 182.5t262.5 63q135 0 239 -57t165 -160v702zM262 496q0 -167 104 -272t275 -105q173 0 275 105t102 274v16q-6 162 -108 263.5 t-267 101.5q-170 0 -275.5 -107t-105.5 -276z" />
<glyph unicode="e" horiz-adv-x="1241" d="M1147 428h-881q23 -144 127 -227.5t264 -83.5q242 0 412 102l57 -127q-112 -58 -221 -85t-250 -27q-255 0 -408 143t-153 371q0 233 147 377.5t375 144.5q150 0 271.5 -64.5t193.5 -186.5t72 -280q0 -26 -6 -57zM621 879q-149 0 -245.5 -90t-111.5 -238h717 q-19 149 -118 238.5t-242 89.5z" />
<glyph unicode="f" horiz-adv-x="827" d="M47 852v135h199v135q0 163 99.5 252.5t275.5 89.5q127 0 260 -47l-39 -123q-66 20 -106 27.5t-95 7.5q-114 0 -173.5 -55t-59.5 -156v-131h395v-135h-395v-852h-162v852h-199z" />
<glyph unicode="g" horiz-adv-x="1339" d="M614 1016q136 0 240.5 -57.5t165.5 -163.5l6 192h154v-926q0 -553 -643 -553q-228 0 -400 58l27 133q157 -55 358 -55q238 0 367 101t129 310v138q-62 -101 -166.5 -157t-243.5 -56q-229 0 -371.5 143.5t-142.5 372.5q0 155 70 274.5t187.5 182.5t262.5 63zM262 496 q0 -167 104 -272t275 -105q173 0 275 105t102 274t-102.5 275t-272.5 106t-275.5 -107t-105.5 -276z" />
<glyph unicode="h" horiz-adv-x="1200" d="M322 725v-725h-164v1503l164 35v-678q184 156 380 156q163 0 256 -95.5t93 -267.5v-653h-162v635q0 123 -57.5 184.5t-161.5 61.5q-94 0 -178 -39.5t-170 -116.5z" />
<glyph unicode="i" horiz-adv-x="479" d="M342 1296q0 -45 -27 -72.5t-75 -27.5q-47 0 -75 27.5t-28 72.5q0 46 28 74.5t75 28.5q46 0 74 -28.5t28 -74.5zM158 987h164v-987h-164v987z" />
<glyph unicode="j" horiz-adv-x="495" d="M360 1296q0 -45 -27 -72.5t-75 -27.5q-46 0 -74 28t-28 72q0 46 28 74.5t74 28.5q47 0 74.5 -28.5t27.5 -74.5zM338 987v-1167q0 -149 -89.5 -231.5t-234.5 -82.5q-87 0 -161 27l20 125q63 -16 113 -16q85 0 136.5 53t51.5 143v1149h164z" />
<glyph unicode="k" horiz-adv-x="1101" d="M158 1503l164 35v-958h219l354 407h190l-430 -485l414 -502h-190l-353 436h-204v-436h-164v1503z" />
<glyph unicode="l" horiz-adv-x="479" d="M158 1503l164 35v-1538h-164v1503z" />
<glyph unicode="m" horiz-adv-x="1771" d="M158 987h164v-121q164 144 335 144q186 0 267 -144q90 72 179.5 108t196.5 36q153 0 238.5 -92.5t85.5 -264.5v-653h-164v635q0 239 -192 239q-168 0 -305 -131q8 -58 8 -90v-653h-162v635q0 239 -193 239q-151 0 -294 -131v-743h-164v987z" />
<glyph unicode="n" horiz-adv-x="1200" d="M322 725v-725h-164v987h164v-127q184 156 380 156q163 0 256 -95.5t93 -267.5v-653h-162v635q0 123 -57.5 184.5t-161.5 61.5q-94 0 -178 -39.5t-170 -116.5z" />
<glyph unicode="o" d="M635 1008q247 0 394 -142.5t147 -371.5t-147 -371.5t-394 -142.5q-246 0 -393.5 143t-147.5 371t147.5 371t393.5 143zM1008 494q0 169 -100 272.5t-273 103.5q-172 0 -272.5 -103.5t-100.5 -272.5t101 -273t272 -104q173 0 273 103.5t100 273.5z" />
<glyph unicode="p" horiz-adv-x="1320" d="M717 1014q226 0 368 -143t142 -375t-142.5 -375.5t-367.5 -143.5q-138 0 -238 56.5t-157 159.5v-664h-164v1458h155l4 -192q59 104 160 161.5t240 57.5zM1059 496q0 170 -100 275.5t-271 105.5q-167 0 -264 -101t-102 -264v-33q5 -163 102 -263.5t264 -100.5 q170 0 270.5 106t100.5 275z" />
<glyph unicode="q" horiz-adv-x="1339" d="M614 1016q136 0 240.5 -57.5t165.5 -163.5l6 192h156v-1483h-164v689q-62 -101 -166.5 -157t-243.5 -56q-229 0 -371.5 143.5t-142.5 372.5q0 155 70 274.5t187.5 182.5t262.5 63zM262 496q0 -167 104 -272t275 -105q173 0 275 105t102 274v16q-6 162 -108 263.5 t-267 101.5q-170 0 -275.5 -107t-105.5 -276z" />
<glyph unicode="r" horiz-adv-x="811" d="M799 991l-27 -145q-47 16 -110 16q-91 0 -179.5 -47t-160.5 -133v-682h-164v987h164v-149q82 91 167 131.5t187 40.5q58 0 123 -19z" />
<glyph unicode="s" horiz-adv-x="1024" d="M293 739q0 -40 35.5 -69.5t92.5 -50t126.5 -39.5t138.5 -44t126 -57.5t92.5 -86.5t35.5 -124q0 -155 -112 -221.5t-332 -66.5q-101 0 -222.5 15.5t-207.5 43.5l26 123q212 -53 395 -53q63 0 111 6.5t89 23t63 48.5t22 79q0 42 -28 74t-73.5 51.5t-103.5 39t-118.5 34.5 t-118.5 39t-103.5 52t-73.5 74t-28 105q0 145 111 209t319 64q195 0 346 -58l-24 -125q-141 56 -310 56q-60 0 -105.5 -6t-85.5 -21t-61.5 -44t-21.5 -71z" />
<glyph unicode="t" horiz-adv-x="913" d="M41 852v135h192v207l162 45v-252h428v-135h-428v-457q0 -144 58.5 -212t177.5 -68q128 0 241 55l39 -121q-150 -69 -321 -69q-168 0 -262.5 92.5t-94.5 269.5v510h-192z" />
<glyph unicode="u" horiz-adv-x="1198" d="M1038 0h-153l-6 129q-177 -149 -383 -149q-162 0 -255.5 91.5t-93.5 262.5v653h164v-635q0 -122 56.5 -180.5t160.5 -58.5q185 0 349 147v727h161v-987z" />
<glyph unicode="v" horiz-adv-x="1112" d="M635 0h-160l-450 987h172l358 -829l363 829h169z" />
<glyph unicode="w" horiz-adv-x="1630" d="M516 0h-151l-330 987h170l244 -790l294 790h146l291 -790l245 790h168l-325 -987h-154l-299 778z" />
<glyph unicode="x" horiz-adv-x="1105" d="M53 987h187l313 -416l315 416h185l-381 -491l407 -496h-184l-342 414l-340 -414h-186l405 496z" />
<glyph unicode="y" horiz-adv-x="1138" d="M1114 987l-489 -1128q-78 -182 -166.5 -256t-218.5 -74q-116 0 -197 33l23 116q88 -22 149 -22q78 0 144.5 58t129.5 210l31 76h-12l-488 987h185l387 -815l340 815h182z" />
<glyph unicode="z" horiz-adv-x="1073" d="M94 852v135h871v-102l-672 -750h715v-135h-936v100l673 752h-651z" />
<glyph unicode="{" horiz-adv-x="632" d="M76 481v125q61 3 98 46.5t37 117.5v473q0 122 76 190t200 68q50 0 70 -2v-129h-49q-62 0 -98.5 -33t-36.5 -94v-479q0 -76 -33 -132t-88 -89q54 -36 87.5 -93t33.5 -128v-392q0 -60 37 -93.5t98 -33.5h49v-129q-20 -2 -70 -2q-124 0 -200 68t-76 190v387q0 69 -37.5 115 t-97.5 49z" />
<glyph unicode="|" horiz-adv-x="524" d="M336 -512h-148v2068h148v-2068z" />
<glyph unicode="}" horiz-adv-x="632" d="M557 606v-125q-60 -3 -97.5 -49t-37.5 -115v-387q0 -122 -76.5 -190t-200.5 -68q-49 0 -69 2v129h49q61 0 98 33.5t37 93.5v392q0 71 33.5 128t87.5 93q-55 33 -88 89t-33 132v479q0 61 -36.5 94t-98.5 33h-49v129q20 2 69 2q124 0 200.5 -68t76.5 -190v-473 q0 -74 37 -117.5t98 -46.5z" />
<glyph unicode="~" horiz-adv-x="1308" d="M424 817q69 0 139 -28t117.5 -61t108 -61t114.5 -28q50 0 86.5 30t53 69.5t20.5 84.5l108 -30q-3 -123 -74 -206t-190 -83q-54 0 -108 18.5t-99 45t-88.5 53t-91.5 45t-94 18.5q-84 0 -122 -50.5t-50 -137.5l-111 32q5 123 78.5 206t202.5 83z" />
<glyph unicode="&#xa1;" horiz-adv-x="507" d="M170 670v-1108h166v1108h-166zM356 915q0 -46 -28 -75t-74 -29t-74 29t-28 75q0 43 28.5 72t73.5 29q48 0 75 -28.5t27 -72.5z" />
<glyph unicode="&#xa2;" horiz-adv-x="1155" d="M715 -193h-113v177q-233 20 -364.5 159.5t-131.5 352.5q0 214 134 352.5t362 163.5v184h113v-180q171 -5 315 -74l-57 -129q-55 32 -134 50t-155 18q-187 0 -298.5 -106.5t-111.5 -278.5t110 -275.5t298 -103.5q155 0 309 65l56 -125q-165 -71 -332 -77v-173z" />
<glyph unicode="&#xa3;" horiz-adv-x="1169" d="M850 668v-146h-385v-377h627v-145h-992v145h191v377h-191v146h191v393q0 82 25 152.5t75.5 127.5t136 90t197.5 33q71 0 158.5 -21.5t152.5 -56.5l-43 -135q-124 70 -262 70q-130 0 -198 -73.5t-68 -186.5v-393h385z" />
<glyph unicode="&#xa4;" horiz-adv-x="1378" d="M688 1200q180 0 313 -88l111 111l100 -105l-102 -102q109 -135 109 -320q0 -186 -109 -317l102 -103l-100 -104l-111 111q-130 -82 -311 -82q-184 0 -311 82l-111 -111l-100 104l100 103q-104 128 -104 317q0 186 104 318l-100 102l100 105l109 -109q134 88 311 88z M1065 702q0 163 -102 266t-271 103q-170 0 -273.5 -103t-103.5 -266q0 -164 103 -268t274 -104q169 0 271 104t102 268z" />
<glyph unicode="&#xa5;" horiz-adv-x="1368" d="M772 0h-174v281h-371v137h371v108h-371v138h305l-469 770h191l430 -727l432 727h191l-469 -770h303v-138h-369v-108h369v-137h-369v-281z" />
<glyph unicode="&#xa6;" horiz-adv-x="534" d="M342 635h-149v921h149v-921zM193 410h149v-922h-149v922z" />
<glyph unicode="&#xa7;" horiz-adv-x="1255" d="M1174 414q0 -133 -84.5 -230.5t-243.5 -122.5q67 -83 67 -192q0 -78 -25.5 -144.5t-78.5 -120.5t-144.5 -85t-213.5 -31q-77 0 -192 20t-193 54l34 133q78 -33 166 -52.5t148 -19.5q162 0 241.5 72t79.5 174q0 63 -33.5 115t-87.5 89.5t-119 73t-130 73t-119 81 t-87.5 106.5t-33.5 140q0 143 88 239t281 109q-99 99 -99 231q0 68 24 127.5t72.5 107.5t131 75.5t190.5 27.5q61 0 160 -20t166 -51l-33 -133q-72 32 -145 50.5t-121 18.5q-132 0 -199.5 -61.5t-67.5 -145.5q0 -60 33 -110t86 -87.5t117.5 -73.5t128.5 -77t117 -88.5 t86 -117t33 -154.5zM303 545q0 -42 17.5 -80.5t43 -66t69 -58t79 -50t90.5 -50t88 -50.5h21q139 0 210.5 66t71.5 160q0 96 -58.5 163.5t-166.5 131.5l-4 -11q-43 28 -96 44t-90 16q-147 0 -211 -60t-64 -155z" />
<glyph unicode="&#xa8;" horiz-adv-x="1153" d="M367 1315q0 -44 -27.5 -72.5t-75.5 -28.5q-46 0 -74 28.5t-28 72.5q0 47 27.5 75.5t74.5 28.5q46 0 74.5 -28.5t28.5 -75.5zM786 1315q0 -44 -27 -72.5t-75 -28.5q-45 0 -73.5 29t-28.5 72q0 47 28 75.5t74 28.5q47 0 74.5 -28.5t27.5 -75.5z" />
<glyph unicode="&#xa9;" horiz-adv-x="1695" d="M848 1464q157 0 293.5 -53.5t234.5 -149t154.5 -233.5t56.5 -301q0 -217 -91.5 -388t-259.5 -267.5t-386 -96.5q-166 0 -304.5 56.5t-233.5 156t-148 238.5t-53 301q0 161 55.5 298.5t152.5 234t233.5 150.5t295.5 54zM1473 733q0 283 -171 457t-450 174 q-283 0 -456 -174t-173 -457q0 -293 173 -475t456 -182q280 0 450.5 182t170.5 475zM881 1032q-144 0 -231 -84.5t-87 -228.5q0 -141 87 -224t231 -83q120 0 223 47l41 -92q-121 -56 -268 -56q-206 0 -325.5 112.5t-119.5 295.5q0 186 119 301t323 115q141 0 259 -56 l-41 -94q-89 47 -211 47z" />
<glyph unicode="&#xaa;" horiz-adv-x="915" d="M635 1446h129v-592h-129v98q-74 -110 -229 -110q-136 0 -222 86t-86 223q0 140 89 226.5t221 86.5q153 0 227 -114v96zM229 1153q0 -90 56 -147.5t149 -57.5q92 0 146.5 57t54.5 148q0 90 -55 147.5t-146 57.5q-92 0 -148.5 -57.5t-56.5 -147.5z" />
<glyph unicode="&#xab;" horiz-adv-x="958" d="M481 123l-102 -72l-285 443l285 444l102 -72l-225 -372zM848 123l-103 -72l-284 443l284 444l103 -72l-225 -372z" />
<glyph unicode="&#xac;" horiz-adv-x="1245" d="M150 623v137h940v-481h-150v344h-790z" />
<glyph unicode="&#xad;" horiz-adv-x="882" />
<glyph unicode="&#xae;" horiz-adv-x="1695" d="M848 1464q157 0 293.5 -53.5t234.5 -149t154.5 -233.5t56.5 -301q0 -217 -91.5 -388t-259.5 -267.5t-386 -96.5q-166 0 -304.5 56.5t-233.5 156t-148 238.5t-53 301q0 161 55.5 298.5t152.5 234t233.5 150.5t295.5 54zM1473 733q0 283 -171 457t-450 174 q-283 0 -456 -174t-173 -457q0 -293 173 -475t456 -182q280 0 450.5 182t170.5 475zM668 326h-125v792h307q130 0 209.5 -67.5t79.5 -169.5q0 -88 -55.5 -147.5t-153.5 -78.5l256 -329h-144l-247 323h-127v-323zM850 1016h-182v-266h182q70 0 109.5 35t39.5 94 q0 58 -40.5 97.5t-108.5 39.5z" />
<glyph unicode="&#xaf;" horiz-adv-x="944" d="M694 1370v-135h-631v135h631z" />
<glyph unicode="&#xb0;" horiz-adv-x="813" d="M403 1454q133 0 222.5 -82.5t89.5 -216.5q0 -129 -85 -211t-224 -82q-142 0 -225 81.5t-83 211.5q0 133 86 216t219 83zM604 1159q0 90 -53.5 145.5t-142.5 55.5q-90 0 -145.5 -55.5t-55.5 -145.5q0 -91 54.5 -146t146.5 -55q89 0 142.5 55t53.5 146z" />
<glyph unicode="&#xb1;" horiz-adv-x="1198" d="M1001 121v-121h-802v121h802zM524 1135h148v-424h430v-138h-430v-446h-148v446h-430v138h430v424z" />
<glyph unicode="&#xb2;" horiz-adv-x="741" d="M653 727v-113h-581v86l250 250q161 161 161 285q0 141 -174 141q-93 0 -200 -37l-25 107q100 47 260 47q148 0 219.5 -66t71.5 -176q0 -170 -227 -377l-158 -147h403z" />
<glyph unicode="&#xb3;" horiz-adv-x="751" d="M244 1016v104h55q85 0 139 32.5t54 100.5q0 59 -44 94t-126 35q-88 0 -203 -45l-23 109q100 47 248 47q150 0 221.5 -64.5t71.5 -162.5q0 -69 -35 -120.5t-106 -76.5q80 -27 119.5 -82.5t39.5 -130.5q0 -113 -85.5 -184.5t-247.5 -71.5q-62 0 -133.5 12t-118.5 35l26 109 q106 -45 211 -45q95 0 147 39t52 112t-55.5 113.5t-151.5 40.5h-55z" />
<glyph unicode="&#xb4;" horiz-adv-x="1705" d="M281 1157h-148l221 277h211z" />
<glyph unicode="&#xb5;" horiz-adv-x="1275" d="M354 -471h-161v1458h161v-647q6 -227 219 -227q183 0 347 147v727h161v-987h-153l-6 129q-172 -149 -383 -149q-107 0 -185 38v-489z" />
<glyph unicode="&#xb6;" horiz-adv-x="1081" d="M575 -225h-139v843q-159 1 -257.5 117t-98.5 301q0 174 102.5 285t253.5 113h428v-1659h-137v1523h-152v-1523z" />
<glyph unicode="&#xb7;" horiz-adv-x="468" d="M336 633q0 -44 -27.5 -72.5t-75.5 -28.5q-45 0 -73.5 29t-28.5 72q0 46 28 75t74 29q47 0 75 -29t28 -75z" />
<glyph unicode="&#xb8;" horiz-adv-x="1705" d="M336 -213l-35 27l119 186h108l-88 -131q14 4 52 4q70 0 123 -41t53 -121q0 -81 -65 -130.5t-191 -49.5q-116 0 -205 47l41 82q30 -15 75.5 -25t75.5 -10q66 0 101 22.5t35 63.5q0 86 -111 86q-36 0 -88 -10z" />
<glyph unicode="&#xb9;" horiz-adv-x="516" d="M100 1235l-59 90l219 150h111v-861h-135v709z" />
<glyph unicode="&#xba;" horiz-adv-x="860" d="M430 1464q152 0 243 -85t91 -222q0 -138 -91 -223.5t-243 -85.5t-243 85.5t-91 223.5q0 137 91 222t243 85zM631 1157q0 90 -54 145.5t-147 55.5t-147 -55.5t-54 -145.5q0 -92 54 -147.5t147 -55.5t147 55.5t54 147.5z" />
<glyph unicode="&#xbb;" horiz-adv-x="958" d="M211 51l-102 72l225 371l-225 372l102 72l285 -444zM580 51l-103 72l225 371l-225 372l103 72l284 -444z" />
<glyph unicode="&#xbc;" horiz-adv-x="1341" d="M1155 0h-111v158h-385v71l410 555h86v-532h98v-94h-98v-158zM297 0h-139l843 1434h140zM150 1231l-62 76l148 147l2 4h88v-784h-111v618zM793 252h251v342z" />
<glyph unicode="&#xbd;" horiz-adv-x="1488" d="M297 0h-139l843 1434h140zM1403 96v-96h-506v74q206 203 284.5 303.5t78.5 179.5q0 58 -36 97.5t-114 39.5q-85 0 -178 -37l-19 101q85 43 217 43q121 0 190 -68t69 -160q0 -95 -79 -206t-237 -271h330zM150 1231l-62 76l148 147l2 4h88v-784h-111v618z" />
<glyph unicode="&#xbe;" horiz-adv-x="1429" d="M1229 0h-111v158h-383v71l410 555h84v-532h98v-94h-98v-158zM397 0h-137l844 1434h137zM236 1032v86h45q86 0 131 36.5t45 96.5q0 54 -40 91.5t-118 37.5q-87 0 -168 -41l-20 93q82 43 206 43t191 -65t67 -153q0 -130 -116 -180q67 -26 101 -75.5t34 -114.5 q0 -93 -70 -160.5t-200 -67.5q-57 0 -123 12t-111 34l19 92q103 -43 192 -43q87 0 129.5 40t42.5 97q0 59 -49.5 100t-140.5 41h-47zM866 252h252v340z" />
<glyph unicode="&#xbf;" horiz-adv-x="999" d="M471 707h164v-170q0 -69 -20.5 -128.5t-53.5 -101.5t-73 -79.5t-79.5 -72t-72.5 -70t-53.5 -81.5t-20.5 -98q0 -106 75 -169t220 -63q190 0 354 82l29 -141q-173 -84 -395 -84q-125 0 -218.5 30t-147.5 82.5t-79.5 116.5t-25.5 140q0 67 22 125t57 100.5t77.5 81t84.5 75 t77 74.5t57 87.5t22 105.5v158zM451 915q0 45 26 73t74 28q46 0 74 -28.5t28 -72.5q0 -46 -27.5 -75t-74.5 -29q-45 0 -72.5 29t-27.5 75z" />
<glyph unicode="&#xc0;" horiz-adv-x="1429" d="M1231 0l-129 305h-780l-132 -305h-178l619 1434h176l604 -1434h-180zM719 1217l-334 -766h655zM788 1516h-147l-285 276h211z" />
<glyph unicode="&#xc1;" horiz-adv-x="1429" d="M1231 0l-129 305h-780l-132 -305h-178l619 1434h176l604 -1434h-180zM719 1217l-334 -766h655zM782 1516h-147l221 276h211z" />
<glyph unicode="&#xc2;" horiz-adv-x="1429" d="M1231 0l-129 305h-780l-132 -305h-178l619 1434h176l604 -1434h-180zM719 1217l-334 -766h655zM528 1513h-163l278 277h135l279 -277h-164l-182 175z" />
<glyph unicode="&#xc3;" horiz-adv-x="1429" d="M1231 0l-129 305h-780l-132 -305h-178l619 1434h176l604 -1434h-180zM719 1217l-334 -766h655zM594 1741q37 0 73 -18.5t60 -41t54.5 -41t58.5 -18.5q36 0 55.5 33.5t24.5 85.5h92q-2 -96 -45.5 -163t-130.5 -67q-37 0 -72.5 18.5t-59.5 41t-55 41t-59 18.5 q-34 0 -54.5 -30t-23.5 -87h-94q3 102 46.5 165t129.5 63z" />
<glyph unicode="&#xc4;" horiz-adv-x="1429" d="M1231 0l-129 305h-780l-132 -305h-178l619 1434h176l604 -1434h-180zM719 1217l-334 -766h655zM602 1673q0 -44 -27 -72t-75 -28q-46 0 -74.5 28.5t-28.5 71.5q0 47 28 76t75 29q46 0 74 -29t28 -76zM1022 1673q0 -44 -27 -72t-75 -28q-45 0 -74 28.5t-29 71.5 q0 47 28.5 76t74.5 29q47 0 74.5 -28.5t27.5 -76.5z" />
<glyph unicode="&#xc5;" horiz-adv-x="1429" d="M1231 0l-129 305h-780l-132 -305h-178l619 1434h176l604 -1434h-180zM719 1217l-334 -766h655zM965 1673q0 -84 -69.5 -134t-180.5 -50q-117 0 -183.5 49.5t-66.5 134.5q0 79 68 130.5t182 51.5q110 0 180 -51.5t70 -130.5zM842 1673q0 43 -35 72t-90 29q-58 0 -94.5 -29 t-36.5 -72q0 -50 35.5 -76t95.5 -26q57 0 91 26.5t34 75.5z" />
<glyph unicode="&#xc6;" horiz-adv-x="2080" d="M1993 145v-145h-975v311h-633l-213 -311h-186l972 1434h1010v-146h-776v-473h635v-145h-635v-525h801zM485 457h533v772z" />
<glyph unicode="&#xc7;" horiz-adv-x="1431" d="M784 -213l-34 27l104 166q-229 9 -400 105.5t-259.5 258.5t-88.5 369q0 165 55.5 304t157 238t250.5 154t330 55q270 0 461 -102l-57 -133q-78 43 -184.5 67.5t-211.5 24.5q-283 0 -450.5 -164.5t-167.5 -443.5q0 -270 168 -431t452 -161q108 0 220 24t194 66l55 -131 q-185 -90 -415 -100l-74 -111q14 4 51 4q70 0 123 -41t53 -121q0 -81 -65 -130.5t-191 -49.5q-116 0 -205 47l41 82q30 -15 76 -25t76 -10q66 0 100.5 22.5t34.5 63.5q0 86 -111 86q-36 0 -88 -10z" />
<glyph unicode="&#xc8;" d="M1184 145v-145h-975v1434h950v-146h-776v-473h635v-145h-635v-525h801zM801 1516h-148l-284 276h211z" />
<glyph unicode="&#xc9;" d="M1184 145v-145h-975v1434h950v-146h-776v-473h635v-145h-635v-525h801zM795 1516h-148l221 276h211z" />
<glyph unicode="&#xca;" d="M1184 145v-145h-975v1434h950v-146h-776v-473h635v-145h-635v-525h801zM541 1513h-164l278 277h136l278 -277h-164l-182 175z" />
<glyph unicode="&#xcb;" d="M1184 145v-145h-975v1434h950v-146h-776v-473h635v-145h-635v-525h801zM614 1673q0 -44 -27 -72t-75 -28q-46 0 -74 28t-28 72q0 48 27.5 76.5t74.5 28.5q46 0 74 -29t28 -76zM1034 1673q0 -44 -27 -72t-75 -28q-45 0 -74 28.5t-29 71.5q0 47 28.5 76t74.5 29 q47 0 74.5 -28.5t27.5 -76.5z" />
<glyph unicode="&#xcc;" horiz-adv-x="589" d="M383 0h-174v1434h174v-1434zM373 1516h-148l-284 276h211z" />
<glyph unicode="&#xcd;" horiz-adv-x="589" d="M383 0h-174v1434h174v-1434zM367 1516h-148l221 276h211z" />
<glyph unicode="&#xce;" horiz-adv-x="589" d="M383 0h-174v1434h174v-1434zM113 1513h-164l278 277h135l279 -277h-164l-182 175z" />
<glyph unicode="&#xcf;" horiz-adv-x="589" d="M383 0h-174v1434h174v-1434zM186 1673q0 -44 -27 -72t-75 -28q-46 0 -74 28t-28 72q0 48 27.5 76.5t74.5 28.5q46 0 74 -29t28 -76zM606 1673q0 -44 -27 -72t-75 -28q-45 0 -74 28.5t-29 71.5q0 47 28.5 76t74.5 29q47 0 74.5 -28.5t27.5 -76.5z" />
<glyph unicode="&#xd0;" horiz-adv-x="1570" d="M592 0h-369v672h-180v145h180v617h369q265 0 459 -81t302.5 -243.5t108.5 -392.5q0 -177 -61.5 -313.5t-175.5 -225t-274 -133.5t-359 -45zM641 817v-145h-244v-529h195q322 0 502 144.5t180 429.5q0 278 -181.5 425.5t-500.5 147.5h-195v-473h244z" />
<glyph unicode="&#xd1;" horiz-adv-x="1673" d="M383 0h-174v1434h186l897 -1188v1188h172v-1434h-186l-895 1186v-1186zM725 1741q37 0 73 -18.5t60 -41t54.5 -41t58.5 -18.5q36 0 55.5 33.5t24.5 85.5h92q-2 -96 -45.5 -163t-130.5 -67q-37 0 -72.5 18.5t-59.5 41t-55 41t-59 18.5q-34 0 -54.5 -30t-23.5 -87h-94 q3 102 46.5 165t129.5 63z" />
<glyph unicode="&#xd2;" horiz-adv-x="1763" d="M106 725q0 217 95.5 384.5t272.5 261t409 93.5q173 0 318 -54.5t245 -151.5t155.5 -234t55.5 -299q0 -215 -95 -384t-271.5 -265t-407.5 -96q-174 0 -320 56t-246 154.5t-155.5 236t-55.5 298.5zM1483 725q0 266 -163.5 429t-436.5 163q-275 0 -438.5 -163t-163.5 -429 q0 -265 164 -431.5t438 -166.5q272 0 436 166.5t164 431.5zM961 1546h-148l-285 277h211z" />
<glyph unicode="&#xd3;" horiz-adv-x="1763" d="M106 725q0 217 95.5 384.5t272.5 261t409 93.5q173 0 318 -54.5t245 -151.5t155.5 -234t55.5 -299q0 -215 -95 -384t-271.5 -265t-407.5 -96q-174 0 -320 56t-246 154.5t-155.5 236t-55.5 298.5zM1483 725q0 266 -163.5 429t-436.5 163q-275 0 -438.5 -163t-163.5 -429 q0 -265 164 -431.5t438 -166.5q272 0 436 166.5t164 431.5zM954 1546h-147l221 277h211z" />
<glyph unicode="&#xd4;" horiz-adv-x="1763" d="M106 725q0 217 95.5 384.5t272.5 261t409 93.5q173 0 318 -54.5t245 -151.5t155.5 -234t55.5 -299q0 -215 -95 -384t-271.5 -265t-407.5 -96q-174 0 -320 56t-246 154.5t-155.5 236t-55.5 298.5zM1483 725q0 266 -163.5 429t-436.5 163q-275 0 -438.5 -163t-163.5 -429 q0 -265 164 -431.5t438 -166.5q272 0 436 166.5t164 431.5zM700 1544h-163l278 277h135l279 -277h-164l-182 174z" />
<glyph unicode="&#xd5;" horiz-adv-x="1763" d="M106 725q0 217 95.5 384.5t272.5 261t409 93.5q173 0 318 -54.5t245 -151.5t155.5 -234t55.5 -299q0 -215 -95 -384t-271.5 -265t-407.5 -96q-174 0 -320 56t-246 154.5t-155.5 236t-55.5 298.5zM1483 725q0 266 -163.5 429t-436.5 163q-275 0 -438.5 -163t-163.5 -429 q0 -265 164 -431.5t438 -166.5q272 0 436 166.5t164 431.5zM768 1847q37 0 73 -18.5t60 -40.5t54.5 -40.5t58.5 -18.5q36 0 55.5 33t24.5 85h92q-2 -96 -45.5 -162.5t-130.5 -66.5q-37 0 -72.5 18.5t-59.5 41t-55 41t-59 18.5q-34 0 -54.5 -30t-23.5 -87h-94 q3 102 46.5 164.5t129.5 62.5z" />
<glyph unicode="&#xd6;" horiz-adv-x="1763" d="M106 725q0 217 95.5 384.5t272.5 261t409 93.5q173 0 318 -54.5t245 -151.5t155.5 -234t55.5 -299q0 -215 -95 -384t-271.5 -265t-407.5 -96q-174 0 -320 56t-246 154.5t-155.5 236t-55.5 298.5zM1483 725q0 266 -163.5 429t-436.5 163q-275 0 -438.5 -163t-163.5 -429 q0 -265 164 -431.5t438 -166.5q272 0 436 166.5t164 431.5zM774 1704q0 -44 -27 -72t-75 -28q-46 0 -74.5 28t-28.5 72q0 47 28 75.5t75 28.5q46 0 74 -28.5t28 -75.5zM1194 1704q0 -44 -27 -72t-75 -28q-45 0 -74 28.5t-29 71.5q0 47 28.5 75.5t74.5 28.5q47 0 74.5 -28.5 t27.5 -75.5z" />
<glyph unicode="&#xd7;" horiz-adv-x="923" d="M698 1004l97 -97l-238 -235l238 -236l-97 -96l-237 235l-236 -235l-94 96l236 236l-236 235l94 97l236 -238z" />
<glyph unicode="&#xd8;" horiz-adv-x="1771" d="M111 725q0 162 55.5 299t155.5 234t245.5 151.5t319.5 54.5q270 0 467 -129l135 146l121 -101l-135 -147q186 -202 186 -508q0 -215 -95 -384t-271.5 -265t-407.5 -96q-267 0 -455 122l-194 -211l-111 113l182 199q-198 204 -198 522zM285 725q0 -242 137 -401l823 893 q-145 100 -358 100q-275 0 -438.5 -163t-163.5 -429zM1487 725q0 229 -125 385l-821 -891q147 -92 346 -92q272 0 436 166.5t164 431.5z" />
<glyph unicode="&#xd9;" horiz-adv-x="1527" d="M190 543v891h172v-879q0 -198 108 -315t294 -117q185 0 293 116.5t108 315.5v879h172v-891q0 -256 -154 -411t-419 -155t-419.5 155t-154.5 411zM842 1516h-148l-284 276h211z" />
<glyph unicode="&#xda;" horiz-adv-x="1527" d="M190 543v891h172v-879q0 -198 108 -315t294 -117q185 0 293 116.5t108 315.5v879h172v-891q0 -256 -154 -411t-419 -155t-419.5 155t-154.5 411zM836 1516h-148l221 276h211z" />
<glyph unicode="&#xdb;" horiz-adv-x="1527" d="M190 543v891h172v-879q0 -198 108 -315t294 -117q185 0 293 116.5t108 315.5v879h172v-891q0 -256 -154 -411t-419 -155t-419.5 155t-154.5 411zM582 1513h-164l278 277h135l279 -277h-164l-182 175z" />
<glyph unicode="&#xdc;" horiz-adv-x="1527" d="M190 543v891h172v-879q0 -198 108 -315t294 -117q185 0 293 116.5t108 315.5v879h172v-891q0 -256 -154 -411t-419 -155t-419.5 155t-154.5 411zM655 1673q0 -44 -27 -72t-75 -28q-46 0 -74 28t-28 72q0 48 27.5 76.5t74.5 28.5q46 0 74 -29t28 -76zM1075 1673 q0 -44 -27 -72t-75 -28q-45 0 -74 28.5t-29 71.5q0 47 28.5 76t74.5 29q47 0 74.5 -28.5t27.5 -76.5z" />
<glyph unicode="&#xdd;" horiz-adv-x="1292" d="M733 0h-174v555l-534 879h190l430 -727l432 727h191l-535 -879v-555zM717 1516h-148l222 276h210z" />
<glyph unicode="&#xde;" horiz-adv-x="1308" d="M371 1434v-285h309q256 0 394 -120.5t138 -330.5q0 -211 -137 -326.5t-395 -115.5h-309v-256h-162v1434h162zM680 1008h-309v-609h309q170 0 261 76t91 221q0 149 -93 230.5t-259 81.5z" />
<glyph unicode="&#xdf;" horiz-adv-x="1314" d="M508 0v141h129q407 0 407 281q0 91 -52 156.5t-134.5 96t-183.5 30.5h-166v141h154q126 0 215.5 59.5t89.5 169.5q0 117 -79 183.5t-216 66.5h-27q-150 0 -232.5 -80.5t-82.5 -220.5v-1024h-172v1024q0 196 129 318t348 122h51q210 0 335.5 -105.5t125.5 -273.5 q0 -102 -60 -180.5t-165 -122.5q139 -46 220 -140t81 -224q0 -211 -150 -314.5t-418 -103.5h-147z" />
<glyph unicode="&#xe0;" horiz-adv-x="1339" d="M614 1016q135 0 239 -57t165 -160v188h162v-987h-162v193q-62 -101 -166.5 -157t-243.5 -56q-229 0 -371.5 143.5t-142.5 372.5q0 155 70 274.5t187.5 182.5t262.5 63zM262 496q0 -167 104 -272t275 -105q168 0 269.5 99.5t107.5 262.5v33q-6 162 -108 263.5t-267 101.5 q-170 0 -275.5 -107t-105.5 -276zM739 1139h-147l-285 276h211z" />
<glyph unicode="&#xe1;" horiz-adv-x="1339" d="M614 1016q135 0 239 -57t165 -160v188h162v-987h-162v193q-62 -101 -166.5 -157t-243.5 -56q-229 0 -371.5 143.5t-142.5 372.5q0 155 70 274.5t187.5 182.5t262.5 63zM262 496q0 -167 104 -272t275 -105q168 0 269.5 99.5t107.5 262.5v33q-6 162 -108 263.5t-267 101.5 q-170 0 -275.5 -107t-105.5 -276zM733 1139h-147l221 276h211z" />
<glyph unicode="&#xe2;" horiz-adv-x="1339" d="M614 1016q135 0 239 -57t165 -160v188h162v-987h-162v193q-62 -101 -166.5 -157t-243.5 -56q-229 0 -371.5 143.5t-142.5 372.5q0 155 70 274.5t187.5 182.5t262.5 63zM262 496q0 -167 104 -272t275 -105q168 0 269.5 99.5t107.5 262.5v33q-6 162 -108 263.5t-267 101.5 q-170 0 -275.5 -107t-105.5 -276zM479 1137h-164l279 276h135l279 -276h-164l-182 174z" />
<glyph unicode="&#xe3;" horiz-adv-x="1339" d="M614 1016q135 0 239 -57t165 -160v188h162v-987h-162v193q-62 -101 -166.5 -157t-243.5 -56q-229 0 -371.5 143.5t-142.5 372.5q0 155 70 274.5t187.5 182.5t262.5 63zM262 496q0 -167 104 -272t275 -105q168 0 269.5 99.5t107.5 262.5v33q-6 162 -108 263.5t-267 101.5 q-170 0 -275.5 -107t-105.5 -276zM545 1364q37 0 73 -18.5t60 -41t54.5 -41t58.5 -18.5q68 0 79 119h93q-2 -96 -46 -162.5t-131 -66.5q-37 0 -72.5 18.5t-59.5 40.5t-54.5 40.5t-58.5 18.5q-34 0 -54.5 -30t-23.5 -86h-94q3 102 46.5 164.5t129.5 62.5z" />
<glyph unicode="&#xe4;" horiz-adv-x="1339" d="M614 1016q135 0 239 -57t165 -160v188h162v-987h-162v193q-62 -101 -166.5 -157t-243.5 -56q-229 0 -371.5 143.5t-142.5 372.5q0 155 70 274.5t187.5 182.5t262.5 63zM262 496q0 -167 104 -272t275 -105q168 0 269.5 99.5t107.5 262.5v33q-6 162 -108 263.5t-267 101.5 q-170 0 -275.5 -107t-105.5 -276zM553 1296q0 -44 -27 -72t-75 -28q-47 0 -75 28t-28 72q0 47 28 76t75 29q46 0 74 -29t28 -76zM973 1296q0 -44 -27.5 -72t-75.5 -28q-45 0 -73.5 28.5t-28.5 71.5q0 47 28 76t74 29q47 0 75 -29t28 -76z" />
<glyph unicode="&#xe5;" horiz-adv-x="1339" d="M614 1016q135 0 239 -57t165 -160v188h162v-987h-162v193q-62 -101 -166.5 -157t-243.5 -56q-229 0 -371.5 143.5t-142.5 372.5q0 155 70 274.5t187.5 182.5t262.5 63zM262 496q0 -167 104 -272t275 -105q168 0 269.5 99.5t107.5 262.5v33q-6 162 -108 263.5t-267 101.5 q-170 0 -275.5 -107t-105.5 -276zM915 1296q0 -84 -69 -134t-180 -50q-117 0 -183.5 49.5t-66.5 134.5q0 79 68 131t182 52q109 0 179 -52t70 -131zM793 1296q0 43 -35 72t-90 29q-58 0 -94.5 -29t-36.5 -72q0 -50 35.5 -76t95.5 -26q57 0 91 26.5t34 75.5z" />
<glyph unicode="&#xe6;" horiz-adv-x="2220" d="M614 1016q135 0 239 -57t165 -160v188h162v-160q70 90 177 139.5t236 49.5q150 0 271.5 -64.5t193.5 -186.5t72 -280q0 -26 -6 -57h-881q23 -144 127 -227.5t264 -83.5q242 0 412 102l57 -127q-112 -58 -221 -85t-250 -27q-148 0 -263.5 49t-188.5 139v-168h-162v193 q-62 -101 -166.5 -157t-243.5 -56q-229 0 -371.5 143.5t-142.5 372.5q0 155 70 274.5t187.5 182.5t262.5 63zM262 496q0 -167 104 -272t275 -105q168 0 269.5 99.5t107.5 262.5v33q-6 162 -108 263.5t-267 101.5q-170 0 -275.5 -107t-105.5 -276zM1597 879q-149 0 -245 -90 t-111 -238h717q-19 149 -118.5 238.5t-242.5 89.5z" />
<glyph unicode="&#xe7;" horiz-adv-x="1089" d="M535 -213l-35 27l106 168q-241 17 -376.5 157t-135.5 357q0 235 159 377.5t423 142.5q194 0 342 -74l-57 -129q-55 32 -134 50t-155 18q-187 0 -298.5 -106.5t-111.5 -278.5t110 -275.5t298 -103.5q155 0 309 65l55 -125q-150 -66 -321 -75l-74 -113q14 4 51 4 q70 0 123 -41t53 -121q0 -81 -65 -130.5t-191 -49.5q-115 0 -204 47l40 82q30 -15 76 -25t76 -10q66 0 100.5 22.5t34.5 63.5q0 86 -110 86q-36 0 -88 -10z" />
<glyph unicode="&#xe8;" horiz-adv-x="1241" d="M1147 428h-881q23 -144 127 -227.5t264 -83.5q242 0 412 102l57 -127q-112 -58 -221 -85t-250 -27q-255 0 -408 143t-153 371q0 233 147 377.5t375 144.5q150 0 271.5 -64.5t193.5 -186.5t72 -280q0 -26 -6 -57zM621 879q-149 0 -245.5 -90t-111.5 -238h717 q-19 149 -118 238.5t-242 89.5zM700 1139h-147l-285 276h211z" />
<glyph unicode="&#xe9;" horiz-adv-x="1241" d="M1147 428h-881q23 -144 127 -227.5t264 -83.5q242 0 412 102l57 -127q-112 -58 -221 -85t-250 -27q-255 0 -408 143t-153 371q0 233 147 377.5t375 144.5q150 0 271.5 -64.5t193.5 -186.5t72 -280q0 -26 -6 -57zM621 879q-149 0 -245.5 -90t-111.5 -238h717 q-19 149 -118 238.5t-242 89.5zM692 1139h-147l221 276h211z" />
<glyph unicode="&#xea;" horiz-adv-x="1241" d="M1147 428h-881q23 -144 127 -227.5t264 -83.5q242 0 412 102l57 -127q-112 -58 -221 -85t-250 -27q-255 0 -408 143t-153 371q0 233 147 377.5t375 144.5q150 0 271.5 -64.5t193.5 -186.5t72 -280q0 -26 -6 -57zM621 879q-149 0 -245.5 -90t-111.5 -238h717 q-19 149 -118 238.5t-242 89.5zM440 1137h-164l279 276h135l279 -276h-164l-182 174z" />
<glyph unicode="&#xeb;" horiz-adv-x="1241" d="M1147 428h-881q23 -144 127 -227.5t264 -83.5q242 0 412 102l57 -127q-112 -58 -221 -85t-250 -27q-255 0 -408 143t-153 371q0 233 147 377.5t375 144.5q150 0 271.5 -64.5t193.5 -186.5t72 -280q0 -26 -6 -57zM621 879q-149 0 -245.5 -90t-111.5 -238h717 q-19 149 -118 238.5t-242 89.5zM514 1296q0 -44 -27 -72t-75 -28q-46 0 -74.5 28t-28.5 72q0 47 28 76t75 29q46 0 74 -29t28 -76zM934 1296q0 -44 -27.5 -72t-75.5 -28q-45 0 -73.5 28.5t-28.5 71.5q0 47 28 76t74 29q47 0 75 -29t28 -76z" />
<glyph unicode="&#xec;" horiz-adv-x="479" d="M158 987h164v-987h-164v987zM305 1110h-147l-285 276h211z" />
<glyph unicode="&#xed;" horiz-adv-x="479" d="M158 987h164v-987h-164v987zM299 1110h-147l221 276h211z" />
<glyph unicode="&#xee;" horiz-adv-x="479" d="M158 987h164v-987h-164v987zM45 1108h-164l279 276h135l278 -276h-163l-183 174z" />
<glyph unicode="&#xef;" horiz-adv-x="479" d="M158 987h164v-987h-164v987zM119 1268q0 -44 -27.5 -72.5t-75.5 -28.5q-46 0 -74 28.5t-28 72.5q0 47 27.5 75.5t74.5 28.5q46 0 74.5 -28.5t28.5 -75.5zM539 1268q0 -44 -27.5 -72.5t-75.5 -28.5q-45 0 -73.5 29t-28.5 72q0 47 28 75.5t74 28.5q47 0 75 -28.5t28 -75.5z " />
<glyph unicode="&#xf0;" horiz-adv-x="1165" d="M727 1470l84 -94l-143 -86q214 -227 306.5 -411.5t92.5 -350.5q0 -247 -129.5 -400t-357.5 -153q-223 0 -353.5 136.5t-130.5 349.5q0 200 125.5 331.5t321.5 131.5q130 0 254 -52q-91 168 -256 342l-142 -84l-84 95l138 82q-52 52 -134 127l123 79q17 -15 138 -131z M580 102q154 0 235.5 110.5t81.5 305.5q0 102 -33 197q-136 88 -282 88q-153 0 -238.5 -100t-85.5 -250q0 -149 90 -250t232 -101z" />
<glyph unicode="&#xf1;" horiz-adv-x="1200" d="M322 725v-725h-164v987h164v-127q184 156 380 156q163 0 256 -95.5t93 -267.5v-653h-162v635q0 123 -57.5 184.5t-161.5 61.5q-94 0 -178 -39.5t-170 -116.5zM492 1364q37 0 73 -18.5t59.5 -41t54 -41t58.5 -18.5q36 0 55.5 33.5t24.5 85.5h92q-2 -96 -45.5 -162.5 t-130.5 -66.5q-37 0 -72.5 18.5t-59.5 40.5t-55 40.5t-59 18.5q-71 0 -77 -116h-95q3 102 47 164.5t130 62.5z" />
<glyph unicode="&#xf2;" d="M635 1008q247 0 394 -142.5t147 -371.5t-147 -371.5t-394 -142.5q-246 0 -393.5 143t-147.5 371t147.5 371t393.5 143zM1008 494q0 169 -100 272.5t-273 103.5q-172 0 -272.5 -103.5t-100.5 -272.5t101 -273t272 -104q173 0 273 103.5t100 273.5zM713 1130h-148l-284 277 h211z" />
<glyph unicode="&#xf3;" d="M635 1008q247 0 394 -142.5t147 -371.5t-147 -371.5t-394 -142.5q-246 0 -393.5 143t-147.5 371t147.5 371t393.5 143zM1008 494q0 169 -100 272.5t-273 103.5q-172 0 -272.5 -103.5t-100.5 -272.5t101 -273t272 -104q173 0 273 103.5t100 273.5zM707 1130h-148l221 277 h211z" />
<glyph unicode="&#xf4;" d="M635 1008q247 0 394 -142.5t147 -371.5t-147 -371.5t-394 -142.5q-246 0 -393.5 143t-147.5 371t147.5 371t393.5 143zM1008 494q0 169 -100 272.5t-273 103.5q-172 0 -272.5 -103.5t-100.5 -272.5t101 -273t272 -104q173 0 273 103.5t100 273.5zM453 1128h-164l278 277 h135l279 -277h-164l-182 175z" />
<glyph unicode="&#xf5;" d="M635 1008q247 0 394 -142.5t147 -371.5t-147 -371.5t-394 -142.5q-246 0 -393.5 143t-147.5 371t147.5 371t393.5 143zM1008 494q0 169 -100 272.5t-273 103.5q-172 0 -272.5 -103.5t-100.5 -272.5t101 -273t272 -104q173 0 273 103.5t100 273.5zM518 1356q37 0 73 -18.5 t60 -41t54.5 -41t58.5 -18.5q36 0 55.5 33.5t24.5 85.5h92q-2 -96 -45.5 -163t-130.5 -67q-37 0 -72.5 18.5t-59.5 41t-55 41t-59 18.5q-34 0 -54.5 -30t-23.5 -87h-94q3 102 46.5 165t129.5 63z" />
<glyph unicode="&#xf6;" d="M635 1008q247 0 394 -142.5t147 -371.5t-147 -371.5t-394 -142.5q-246 0 -393.5 143t-147.5 371t147.5 371t393.5 143zM1008 494q0 169 -100 272.5t-273 103.5q-172 0 -272.5 -103.5t-100.5 -272.5t101 -273t272 -104q173 0 273 103.5t100 273.5zM526 1288q0 -44 -27 -72 t-75 -28q-46 0 -74 28t-28 72q0 48 27.5 76.5t74.5 28.5q46 0 74 -29t28 -76zM946 1288q0 -44 -27 -72t-75 -28q-45 0 -74 28.5t-29 71.5q0 47 28.5 76t74.5 29q47 0 74.5 -28.5t27.5 -76.5z" />
<glyph unicode="&#xf7;" horiz-adv-x="1105" d="M977 602v-137h-850v137h850zM653 156q0 -44 -27 -72.5t-75 -28.5q-45 0 -73.5 29t-28.5 72q0 46 28 75t74 29q47 0 74.5 -29t27.5 -75zM653 913q0 -44 -27 -72t-75 -28q-45 0 -73.5 28.5t-28.5 71.5q0 46 28.5 75.5t73.5 29.5q47 0 74.5 -29.5t27.5 -75.5z" />
<glyph unicode="&#xf8;" d="M635 1008q69 0 145 -17l82 195l105 -43l-78 -187q137 -60 212 -181t75 -281q0 -229 -147 -371.5t-394 -142.5q-74 0 -146 16l-81 -199l-107 43l78 189q-135 60 -210 182t-75 283q0 228 147.5 371t393.5 143zM1008 494q0 112 -45.5 197.5t-128.5 131.5l-291 -698 q39 -8 92 -8q173 0 273 103.5t100 273.5zM262 494q0 -112 45.5 -198t128.5 -132l291 696q-48 10 -92 10q-172 0 -272.5 -103.5t-100.5 -272.5z" />
<glyph unicode="&#xf9;" horiz-adv-x="1198" d="M1038 0h-153l-6 129q-177 -149 -383 -149q-162 0 -255.5 91.5t-93.5 262.5v653h164v-635q0 -122 56.5 -180.5t160.5 -58.5q185 0 349 147v727h161v-987zM674 1110h-148l-284 276h211z" />
<glyph unicode="&#xfa;" horiz-adv-x="1198" d="M1038 0h-153l-6 129q-177 -149 -383 -149q-162 0 -255.5 91.5t-93.5 262.5v653h164v-635q0 -122 56.5 -180.5t160.5 -58.5q185 0 349 147v727h161v-987zM668 1110h-148l221 276h211z" />
<glyph unicode="&#xfb;" horiz-adv-x="1198" d="M1038 0h-153l-6 129q-177 -149 -383 -149q-162 0 -255.5 91.5t-93.5 262.5v653h164v-635q0 -122 56.5 -180.5t160.5 -58.5q185 0 349 147v727h161v-987zM414 1108h-164l278 276h136l278 -276h-164l-182 174z" />
<glyph unicode="&#xfc;" horiz-adv-x="1198" d="M1038 0h-153l-6 129q-177 -149 -383 -149q-162 0 -255.5 91.5t-93.5 262.5v653h164v-635q0 -122 56.5 -180.5t160.5 -58.5q185 0 349 147v727h161v-987zM487 1268q0 -44 -27 -72.5t-75 -28.5q-46 0 -74 28.5t-28 72.5q0 47 27.5 75.5t74.5 28.5q46 0 74 -28.5t28 -75.5z M907 1268q0 -44 -27 -72.5t-75 -28.5q-45 0 -74 29t-29 72q0 47 28.5 75.5t74.5 28.5q47 0 74.5 -28.5t27.5 -75.5z" />
<glyph unicode="&#xfd;" horiz-adv-x="1138" d="M1114 987l-489 -1128q-78 -182 -166.5 -256t-218.5 -74q-116 0 -197 33l23 116q88 -22 149 -22q78 0 144.5 58t129.5 210l31 76h-12l-488 987h185l387 -815l340 815h182zM664 1139h-148l221 276h211z" />
<glyph unicode="&#xfe;" horiz-adv-x="1288" d="M158 1427l164 35v-626q137 180 387 180q97 0 185.5 -37.5t154.5 -104.5t105.5 -166t39.5 -216q0 -227 -136 -372t-347 -145q-254 0 -389 175v-560h-164v1837zM1028 498q0 164 -103 274.5t-245 110.5q-158 0 -256 -98.5t-102 -268.5v-35q5 -167 99 -267.5t259 -100.5 q151 0 249.5 109t98.5 276z" />
<glyph unicode="&#xff;" horiz-adv-x="1138" d="M1114 987l-489 -1128q-78 -182 -166.5 -256t-218.5 -74q-116 0 -197 33l23 116q88 -22 149 -22q78 0 144.5 58t129.5 210l31 76h-12l-488 987h185l387 -815l340 815h182zM483 1296q0 -44 -27 -72t-75 -28q-46 0 -74 28t-28 72q0 48 27.5 76.5t74.5 28.5q46 0 74 -29 t28 -76zM903 1296q0 -44 -27 -72t-75 -28q-45 0 -74 28.5t-29 71.5q0 47 28.5 76t74.5 29q47 0 74.5 -28.5t27.5 -76.5z" />
<glyph unicode="&#x152;" horiz-adv-x="2525" d="M106 725q0 217 95.5 384.5t272.5 261t409 93.5q194 0 350.5 -67.5t259.5 -190.5v228h930v-146h-756v-520h608v-145h-608v-478h756v-145h-930v242q-103 -125 -259.5 -193.5t-350.5 -68.5q-174 0 -320 56t-246 154.5t-155.5 236t-55.5 298.5zM1483 725q0 266 -163.5 429 t-436.5 163q-275 0 -438.5 -163t-163.5 -429q0 -265 164 -431.5t438 -166.5q272 0 436 166.5t164 431.5z" />
<glyph unicode="&#x153;" horiz-adv-x="2095" d="M635 1008q151 0 267 -56.5t185 -158.5q67 105 175.5 164t240.5 59q218 0 364 -147.5t146 -385.5q0 -24 -6 -57h-827q22 -144 119 -228.5t245 -84.5q208 0 361 77l59 -127q-102 -45 -199.5 -66.5t-222.5 -21.5q-151 0 -267 58t-185 162q-69 -102 -186 -158.5t-269 -56.5 q-246 0 -393.5 143t-147.5 371t147.5 371t393.5 143zM1008 494v16q-6 162 -105.5 261t-267.5 99q-172 0 -272.5 -103.5t-100.5 -272.5t101 -273t272 -104q173 0 273 103.5t100 273.5zM1507 879q-137 0 -225.5 -90t-103.5 -238h661q-17 148 -108.5 238t-223.5 90z" />
<glyph unicode="&#x178;" horiz-adv-x="1292" d="M733 0h-174v555l-534 879h190l430 -727l432 727h191l-535 -879v-555zM537 1673q0 -44 -27.5 -72t-75.5 -28q-46 0 -74 28t-28 72q0 48 27.5 76.5t74.5 28.5q46 0 74.5 -29t28.5 -76zM956 1673q0 -44 -27 -72t-75 -28q-45 0 -73.5 28.5t-28.5 71.5q0 47 28 76t74 29 q47 0 74.5 -28.5t27.5 -76.5z" />
<glyph unicode="&#x2c6;" horiz-adv-x="1705" d="M338 1157h-164l279 277h135l278 -277h-164l-182 174z" />
<glyph unicode="&#x2dc;" horiz-adv-x="1705" d="M422 1391q37 0 73 -18.5t60 -41t54.5 -41t58.5 -18.5q36 0 55.5 33.5t24.5 85.5h92q-2 -96 -45.5 -163t-130.5 -67q-37 0 -72.5 18.5t-59.5 41t-55 41t-59 18.5q-34 0 -54.5 -30t-23.5 -87h-94q3 102 46.5 165t129.5 63z" />
<glyph unicode="&#x2000;" horiz-adv-x="927" />
<glyph unicode="&#x2001;" horiz-adv-x="1855" />
<glyph unicode="&#x2002;" horiz-adv-x="927" />
<glyph unicode="&#x2003;" horiz-adv-x="1855" />
<glyph unicode="&#x2004;" horiz-adv-x="618" />
<glyph unicode="&#x2005;" horiz-adv-x="463" />
<glyph unicode="&#x2006;" horiz-adv-x="309" />
<glyph unicode="&#x2007;" horiz-adv-x="309" />
<glyph unicode="&#x2008;" horiz-adv-x="231" />
<glyph unicode="&#x2009;" horiz-adv-x="371" />
<glyph unicode="&#x200a;" horiz-adv-x="103" />
<glyph unicode="&#x2010;" horiz-adv-x="882" d="M741 614v-145h-598v145h598z" />
<glyph unicode="&#x2011;" horiz-adv-x="882" d="M741 614v-145h-598v145h598z" />
<glyph unicode="&#x2012;" horiz-adv-x="882" d="M741 614v-145h-598v145h598z" />
<glyph unicode="&#x2013;" horiz-adv-x="1312" d="M1171 633v-144h-1028v144h1028z" />
<glyph unicode="&#x2014;" horiz-adv-x="2334" d="M2193 621v-144h-2050v144h2050z" />
<glyph unicode="&#x2018;" horiz-adv-x="460" d="M231 1434h129l-79 -467h-172z" />
<glyph unicode="&#x2019;" horiz-adv-x="450" d="M248 967h-129l80 467h172z" />
<glyph unicode="&#x201a;" horiz-adv-x="466" d="M209 -283h-129l80 467h172z" />
<glyph unicode="&#x201c;" horiz-adv-x="745" d="M231 1434h129l-79 -467h-172zM516 1434h129l-80 -467h-172z" />
<glyph unicode="&#x201d;" horiz-adv-x="735" d="M248 967h-129l80 467h172zM532 967h-129l80 467h172z" />
<glyph unicode="&#x201e;" horiz-adv-x="751" d="M209 -283h-129l80 467h172zM494 -283h-129l79 467h172z" />
<glyph unicode="&#x2022;" horiz-adv-x="651" d="M182 616q0 60 42 102t102 42q59 0 101 -42t42 -102t-42 -101.5t-101 -41.5q-60 0 -102 41.5t-42 101.5z" />
<glyph unicode="&#x2026;" horiz-adv-x="1388" d="M326 80q0 -44 -27.5 -72t-75.5 -28q-45 0 -73.5 28.5t-28.5 71.5q0 46 28 75t74 29q47 0 75 -29t28 -75zM797 80q0 -44 -27.5 -72t-75.5 -28q-45 0 -73.5 28.5t-28.5 71.5q0 46 28 75t74 29q47 0 75 -29t28 -75zM1268 80q0 -44 -27.5 -72t-75.5 -28q-45 0 -73.5 28.5 t-28.5 71.5q0 46 28 75t74 29q47 0 75 -29t28 -75z" />
<glyph unicode="&#x202f;" horiz-adv-x="371" />
<glyph unicode="&#x2039;" horiz-adv-x="589" d="M481 123l-102 -72l-285 443l285 444l102 -72l-225 -372z" />
<glyph unicode="&#x203a;" horiz-adv-x="589" d="M211 51l-102 72l225 371l-225 372l102 72l285 -444z" />
<glyph unicode="&#x205f;" horiz-adv-x="463" />
<glyph unicode="&#x20ac;" horiz-adv-x="1665" d="M1098 1321q-250 0 -412 -129.5t-199 -355.5h562l-29 -111h-541v-12q0 -59 10 -121h486l-29 -113h-428q64 -169 215.5 -263.5t366.5 -94.5q108 0 219.5 24t193.5 66l56 -131q-208 -103 -475 -103q-294 0 -494.5 135.5t-269.5 366.5h-260l28 113h207q-8 52 -8 121v12h-215 l29 111h194q39 287 247.5 457.5t537.5 170.5q269 0 460 -102l-57 -133q-78 44 -184 68t-211 24z" />
<glyph unicode="&#x2122;" horiz-adv-x="1941" d="M481 573h-135v748h-278v113h690v-113h-277v-748zM977 573h-133v861h155l306 -488l307 488h155v-861h-135v678l-276 -458h-103l-276 456v-676z" />
<glyph unicode="&#x25fc;" horiz-adv-x="983" d="M0 983h983v-983h-983v983z" />
</font>
</defs>
</svg>
